<?xml version="1.0" standalone="no"?>
<!DOCTYPE svg PUBLIC "-//W3C//DTD SVG 20010904//EN"
 "http://www.w3.org/TR/2001/REC-SVG-20010904/DTD/svg10.dtd">
<svg version="1.0" xmlns="http://www.w3.org/2000/svg"
 width="32.000000pt" height="32.000000pt" viewBox="0 0 32.000000 32.000000"
 preserveAspectRatio="xMidYMid meet">

<g transform="translate(0.000000,32.000000) scale(0.100000,-0.100000)"
fill="#000000" stroke="none">
<path d="M134 310 c-24 -9 -54 -47 -54 -67 0 -10 22 -13 80 -13 89 0 98 9 58
54 -27 29 -55 38 -84 26z m44 -33 c2 -12 -3 -17 -17 -17 -12 0 -21 6 -21 13 0
31 32 34 38 4z m32 -27 c0 -5 -5 -10 -11 -10 -5 0 -7 5 -4 10 3 6 8 10 11 10
2 0 4 -4 4 -10z"/>
<path d="M35 208 c-2 -7 -6 -47 -8 -88 -3 -41 -8 -85 -12 -97 -7 -21 -4 -23
35 -23 36 0 41 2 34 18 -4 9 -9 59 -12 110 -3 71 -7 92 -18 92 -8 0 -16 -6
-19 -12z"/>
<path d="M87 214 c-12 -12 -8 -149 5 -162 17 -17 123 -16 137 2 7 9 11 42 9
88 l-3 73 -70 3 c-39 1 -74 0 -78 -4z m113 -34 c0 -5 -18 -10 -40 -10 -22 0
-40 5 -40 10 0 6 18 10 40 10 22 0 40 -4 40 -10z m0 -40 c0 -5 -18 -10 -40
-10 -22 0 -40 5 -40 10 0 6 18 10 40 10 22 0 40 -4 40 -10z"/>
<path d="M248 128 c-3 -51 -8 -101 -12 -110 -7 -16 -2 -18 34 -18 39 0 42 2
35 22 -4 13 -10 61 -14 108 -5 68 -9 85 -23 88 -14 3 -17 -10 -20 -90z"/>
</g>
</svg>
